<svg version="1.1" id="Layer_1" xmlns="http://www.w3.org/2000/svg" xmlns:xlink="http://www.w3.org/1999/xlink" x="0px" y="0px"
	 width="100%" viewBox="0 0 1024 1024" enable-background="new 0 0 1024 1024" xml:space="preserve">
<path fill="#000000" opacity="1.000000" stroke="none" 
	d="
M664.898804,509.598724 
	C701.519287,509.604584 737.657043,509.674683 773.794556,509.590698 
	C794.589722,509.542358 815.395752,508.729797 836.176270,509.189972 
	C861.830200,509.758057 887.477051,509.293549 913.125427,509.579407 
	C922.928772,509.688721 932.737549,509.300842 942.544067,509.155243 
	C944.607056,509.124603 946.696106,509.183502 947.119141,511.873901 
	C947.587769,514.853455 945.518555,515.824341 943.248047,515.926025 
	C937.760559,516.171875 932.259094,516.161316 926.763306,516.158630 
	C808.940552,516.101318 691.116821,516.289307 573.295715,515.810303 
	C536.470398,515.660583 499.641571,515.155334 462.817993,515.494263 
	C338.849670,516.635437 214.878891,515.919373 90.909782,516.249512 
	C89.744095,516.252625 88.576752,516.215942 87.412758,516.151367 
	C85.278114,516.033020 84.009384,514.948792 83.826958,512.765564 
	C83.624146,510.338440 85.237587,509.653046 87.196785,509.280518 
	C90.703911,508.613708 94.168755,509.542999 97.658661,509.522156 
	C123.474884,509.367981 149.291092,509.125397 175.107437,509.108887 
	C193.084595,509.097412 211.086990,510.075104 229.033569,509.409821 
	C258.518738,508.316895 287.976898,509.880463 317.452332,509.324860 
	C340.904846,508.882812 364.381714,509.795288 387.837067,509.425476 
	C410.647278,509.065857 433.445648,509.647186 456.249054,509.474121 
	C458.571594,509.456482 460.850311,509.356171 462.984314,508.472260 
	C463.012665,506.249695 461.333618,506.406311 460.200958,506.000122 
	C440.302795,498.864746 420.370697,491.823120 400.500885,484.609833 
	C389.979492,480.790283 379.272003,477.817383 368.141968,476.518097 
	C362.922516,475.908844 357.855652,476.979401 352.890198,478.445282 
	C348.179504,479.835907 344.888672,482.429077 345.206085,488.014801 
	C345.389221,491.237549 343.489410,493.257965 340.688690,494.561890 
	C337.824341,495.895386 335.509369,494.690216 333.335754,492.976959 
	C327.068176,488.036652 327.716797,478.666168 334.881592,472.701569 
	C343.311371,465.683899 353.166901,465.589081 363.327179,467.158905 
	C374.704590,468.916840 385.884552,471.408875 396.577484,475.794586 
	C397.325043,476.101196 398.114105,476.438263 399.182739,475.675049 
	C398.184082,473.328522 395.994476,472.257782 394.150726,471.078400 
	C378.560822,461.106140 364.046814,449.605225 348.761169,439.218170 
	C334.301819,429.392670 318.730774,421.568451 300.896271,420.729095 
	C282.019226,419.840637 264.637634,424.292145 252.173813,439.834534 
	C243.612137,450.510956 242.328644,463.058105 248.148178,475.070312 
	C254.191849,487.545197 265.542999,493.103729 279.392151,492.611450 
	C291.341461,492.186737 302.932739,482.058777 305.396423,470.497437 
	C306.911255,463.388794 303.073425,455.153961 296.877106,452.392090 
	C295.401062,451.734161 293.736023,450.698334 292.200928,452.057251 
	C290.555115,453.514191 291.684448,455.115021 292.390686,456.598572 
	C293.848755,459.661285 294.823822,462.777374 294.004852,466.238129 
	C292.274750,473.549225 287.094879,477.050751 279.096161,476.249878 
	C272.231323,475.562500 267.304352,469.864685 267.189850,462.480774 
	C266.987885,449.452423 278.308868,439.816559 291.282410,441.267487 
	C310.129578,443.375275 316.892670,460.281189 312.638214,475.911377 
	C307.325623,495.428955 286.155945,506.630341 266.382477,500.558990 
	C247.834213,494.863831 236.717850,479.796143 236.638626,460.354004 
	C236.631577,458.626099 237.330917,456.676483 235.726700,455.177032 
	C233.667160,455.306793 233.124161,457.097717 232.100906,458.321625 
	C211.896225,482.488647 187.385605,499.032623 155.083817,501.674835 
	C145.441223,502.463593 136.199783,500.311188 127.226051,497.067413 
	C107.920044,490.088867 94.086296,477.631470 90.274803,456.770477 
	C86.980377,438.739441 92.041496,421.696991 106.912666,411.646667 
	C117.770241,404.308838 139.491699,402.077850 152.286240,413.688934 
	C161.600662,422.141876 163.985229,438.293121 156.778198,447.783997 
	C153.601791,451.966949 147.972580,453.579376 142.315613,451.940613 
	C137.950485,450.676025 136.401260,447.338287 136.108414,443.241699 
	C135.966858,441.261414 136.029419,439.044250 138.127686,437.964661 
	C140.299698,436.847137 141.388489,438.654266 142.647980,440.003052 
	C143.905807,441.350067 145.327499,442.709351 147.420868,441.855438 
	C149.972763,440.814484 151.381302,438.686279 151.583328,436.074219 
	C152.136414,428.922852 148.946991,423.319489 143.201630,419.517273 
	C126.193817,408.261688 106.922089,419.034180 102.527794,436.599976 
	C96.740700,459.733429 109.688705,479.505981 133.766220,486.723724 
	C157.074585,493.710876 177.428314,487.295746 196.334656,473.861145 
	C211.513596,463.075104 223.509735,448.867371 236.484253,435.713654 
	C251.949692,420.034515 271.077576,412.106506 292.805969,411.193726 
	C312.746613,410.356110 330.676422,417.402832 347.437469,427.749603 
	C351.731445,430.400360 355.438690,434.084869 360.562134,435.689484 
	C360.800598,433.718506 359.488190,432.981689 358.570770,432.211426 
	C344.257019,420.193268 328.892761,410.142426 309.942688,407.150238 
	C289.461060,403.916290 270.221130,407.126221 252.490860,418.308533 
	C236.460022,428.419006 222.392288,440.824280 209.350983,454.489868 
	C200.438751,463.828735 190.581726,472.157928 179.069397,477.983124 
	C159.554398,487.857605 139.910004,489.573456 121.026833,476.134674 
	C107.693863,466.645752 102.945915,449.386475 109.666962,435.408112 
	C112.904549,428.674530 118.125954,424.374542 125.651497,423.207153 
	C127.482292,422.923157 129.495346,422.691498 130.366608,424.884247 
	C131.265625,427.146759 129.530624,428.158386 127.955544,429.187225 
	C111.621346,439.856720 112.553543,461.700867 129.791626,471.220581 
	C140.949539,477.382538 152.456451,476.621979 164.123032,472.779236 
	C177.099319,468.505096 187.756302,460.509644 197.562973,451.429413 
	C206.131882,443.495270 214.750519,435.674530 224.142822,428.725952 
	C224.896835,428.168152 225.462036,427.355133 227.240051,425.464142 
	C214.470139,428.395782 203.348343,429.204224 195.801575,417.792664 
	C194.116104,415.244049 194.196884,413.883514 195.707962,410.107361 
	C200.069138,411.101654 203.244995,414.670532 207.662933,415.700806 
	C219.083984,418.364227 229.371735,414.652954 239.613724,410.527222 
	C246.249405,407.854156 252.747330,404.833862 259.412933,402.241577 
	C268.660187,398.645203 278.371033,397.325348 288.238129,396.910919 
	C290.149323,396.830658 292.222534,397.406891 294.193329,395.881317 
	C293.845337,395.298920 293.661133,394.574860 293.202087,394.282867 
	C279.768005,385.738312 269.006104,373.905640 256.381348,364.382446 
	C245.456650,356.141693 234.558914,355.691010 223.892273,362.640533 
	C217.958740,366.506317 216.471344,372.349457 217.394302,378.810486 
	C218.182907,384.330933 220.854630,388.856476 226.550079,390.897980 
	C228.852249,391.723206 231.189377,392.341278 232.948868,390.093353 
	C234.650330,387.919525 233.232285,386.166626 231.876282,384.323914 
	C229.137146,380.601624 229.726486,374.570190 232.921356,371.538666 
	C235.834625,368.774384 240.970734,368.935516 244.848801,372.008301 
	C249.665298,375.824585 251.289474,381.034576 249.923630,386.752533 
	C248.255234,393.737061 244.358994,399.295837 236.930893,401.239624 
	C221.470291,405.285370 206.369171,391.462555 208.079803,375.291687 
	C210.929535,348.352936 236.371292,343.556854 253.451797,352.165802 
	C256.404663,353.654114 259.054230,355.741089 261.859009,357.527802 
	C263.344299,358.473999 264.578186,360.097351 266.768738,359.459290 
	C268.482880,357.305603 266.683838,355.324127 266.366119,353.346191 
	C264.323578,340.629608 266.342621,329.208466 276.099243,319.893402 
	C284.966309,311.427612 300.342041,310.238281 310.774719,317.424957 
	C321.320923,324.689850 326.181549,340.057739 321.433197,351.123932 
	C318.128174,358.826355 308.383789,364.031708 300.525330,362.292725 
	C293.607788,360.761932 289.281647,355.254364 289.497528,348.253021 
	C289.746368,340.181396 297.740631,335.524933 304.800690,339.427582 
	C306.225739,340.215271 307.392487,341.484833 308.637726,342.578461 
	C309.598480,343.422241 310.262451,344.968353 311.882355,344.327667 
	C313.547699,343.669037 313.593811,342.028625 313.695007,340.519562 
	C314.049347,335.236237 308.755219,327.113739 303.265198,324.504822 
	C289.759003,318.086517 274.851318,327.194672 274.246307,342.191376 
	C273.518311,360.235107 283.929688,372.022644 296.949371,382.142609 
	C309.236694,391.693329 324.155396,396.932983 336.826996,405.915497 
	C341.851715,409.477386 346.999817,412.869415 352.164795,416.226440 
	C353.609039,417.165131 355.354553,418.796814 357.061615,417.034668 
	C358.472473,415.578278 357.172913,413.909943 356.459961,412.439423 
	C346.621368,392.146515 342.009613,370.518890 341.975433,348.174561 
	C341.905762,302.651581 356.246948,262.659393 388.930267,229.886002 
	C412.997040,205.752899 441.547760,189.911316 474.622742,182.399109 
	C505.950195,175.283829 537.123901,177.319305 567.890503,186.008987 
	C594.606018,193.554443 618.546631,206.132126 638.418762,225.891800 
	C663.610229,250.940659 679.441833,280.914703 686.279480,315.748444 
	C692.528931,347.585205 688.170898,378.292328 676.911072,408.337799 
	C675.569885,411.916595 673.106995,415.010498 672.450378,418.859497 
	C672.380249,419.270355 672.741394,419.754791 672.867859,420.108521 
	C673.901550,420.636932 674.646973,420.194427 675.239136,419.617889 
	C687.004700,408.162323 701.747009,401.334045 715.802917,393.424438 
	C729.073669,385.956635 742.215088,378.205750 749.931213,364.308655 
	C754.992554,355.192963 757.879272,345.558380 753.959717,335.134308 
	C749.018860,321.994049 730.625366,318.280029 721.364197,328.563110 
	C717.568054,332.778076 716.164673,337.602539 717.977173,342.993073 
	C720.493835,343.821716 721.418823,342.098663 722.516907,341.000916 
	C725.842468,337.676575 729.515137,337.611694 733.509094,339.513916 
	C737.348328,341.342407 739.320801,344.313995 739.297913,348.618896 
	C739.268372,354.166687 737.605896,358.835938 732.270447,361.379791 
	C726.644226,364.062378 718.711731,362.643768 714.146301,358.122955 
	C707.155823,351.200745 706.026367,342.755493 708.299866,333.637177 
	C711.237610,321.854492 720.564270,314.215332 733.442139,312.795074 
	C744.067261,311.623322 755.560364,318.079041 760.868530,328.492645 
	C765.273926,337.135284 766.754517,346.105408 763.093079,355.498260 
	C762.341919,357.425171 761.076355,359.321808 761.567993,361.671783 
	C763.916321,361.922516 764.738831,359.947388 765.983337,358.809021 
	C776.809631,348.905884 789.217651,345.303253 803.338501,349.954956 
	C812.627014,353.014801 819.089172,359.381653 821.224609,369.146637 
	C823.490967,379.510651 822.099182,389.221375 813.330261,396.367920 
	C807.139038,401.413696 799.893372,403.363007 792.334167,399.833893 
	C784.948425,396.385803 781.909668,389.806946 781.774292,381.910339 
	C781.682190,376.532623 784.343689,372.728088 789.343506,370.664642 
	C794.138977,368.685486 799.275085,370.015472 801.861877,373.846619 
	C804.436646,377.659912 803.651489,384.180969 800.151123,387.429565 
	C799.550964,387.986511 798.675293,388.246521 797.940552,388.636475 
	C799.879089,392.200592 802.010437,391.794830 804.283936,390.884247 
	C812.166077,387.727264 815.863098,377.153778 811.801331,369.378754 
	C806.232910,358.719452 795.207947,354.903015 783.208374,359.661194 
	C778.716309,361.442444 774.453552,363.709106 770.738892,366.922150 
	C759.576904,376.576874 749.037476,386.964539 736.446167,395.601532 
	C739.185120,397.558105 741.946899,396.950531 744.422974,397.163361 
	C761.433899,398.625549 777.002869,405.032257 792.707458,410.991699 
	C797.531921,412.822418 802.333923,414.700104 807.394165,415.817505 
	C815.522888,417.612488 823.254517,417.263580 830.223083,411.999207 
	C831.610229,410.951355 833.289246,409.412567 835.056519,411.302582 
	C836.751648,413.115509 836.571594,415.115570 835.221863,417.230743 
	C830.679016,424.349945 821.493286,428.345978 812.601440,426.895203 
	C810.535217,426.558105 808.413086,425.557892 806.709717,427.583099 
	C806.568115,429.111450 807.585938,429.781921 808.454285,430.540680 
	C818.863647,439.636383 829.151550,448.876221 839.717896,457.785919 
	C850.981079,467.283356 863.472473,474.049347 878.589539,475.566956 
	C893.112183,477.024872 907.395630,469.090149 912.636841,455.681976 
	C916.721436,445.232697 912.841125,435.068024 902.845093,430.038086 
	C902.249878,429.738586 901.633240,429.480103 901.046692,429.164978 
	C899.383850,428.271729 897.614746,427.261475 898.373718,425.005859 
	C899.178467,422.614227 901.351501,422.507660 903.385498,422.927856 
	C907.184937,423.712860 910.634094,425.289703 913.617065,427.866302 
	C927.932983,440.232330 926.198730,464.375946 909.998230,476.127136 
	C895.002808,487.004181 878.572021,487.510803 861.399963,482.562561 
	C844.835022,477.789185 832.993713,466.093170 821.126709,454.715576 
	C807.772461,441.912018 795.219727,428.174957 778.864319,419.062012 
	C757.655701,407.245026 735.293274,401.298920 711.286987,409.337311 
	C697.158752,414.068024 684.093628,421.081635 672.893127,431.142303 
	C671.581055,432.320831 670.033142,433.481659 669.643860,435.860046 
	C673.241821,434.784515 675.761902,432.393311 678.554871,430.469482 
	C693.029907,420.499054 708.754944,413.581848 726.341614,411.583862 
	C745.887756,409.363312 763.538391,415.164154 780.020203,425.138397 
	C793.913513,433.546112 803.845276,446.346130 815.260315,457.493530 
	C827.868896,469.806458 841.227905,480.835297 858.513794,486.250275 
	C876.922852,492.017181 894.278564,490.321533 910.825317,480.398376 
	C930.252441,468.747894 934.667419,440.864441 919.775818,423.852081 
	C912.165039,415.157532 900.394958,412.470581 890.238770,417.109192 
	C882.319092,420.726349 878.036255,428.507904 879.275208,437.051666 
	C879.625671,439.468445 880.482971,441.713440 882.953796,442.553497 
	C885.268921,443.340637 886.584656,441.538544 887.891479,439.978149 
	C888.734009,438.972229 889.553223,437.755524 891.178589,438.287567 
	C892.820984,438.825134 893.339905,440.056580 893.506287,441.733185 
	C893.856689,445.265839 893.403381,448.519653 890.275696,450.623322 
	C886.495789,453.165619 882.359009,453.026154 878.370056,451.161224 
	C871.244263,447.829681 867.721924,438.038208 870.241699,429.023712 
	C874.748230,412.901672 890.733032,403.845551 907.440552,405.902405 
	C932.547729,408.993378 945.275879,436.533661 939.851929,457.242676 
	C934.234619,478.689575 921.401306,492.345093 899.652832,498.707458 
	C875.235657,505.850464 853.718750,499.468262 832.707153,487.873932 
	C820.019958,480.873047 809.326721,471.415588 799.465332,460.916138 
	C798.163147,459.529694 797.165466,457.556885 794.613037,457.409302 
	C792.374329,459.303589 793.411255,461.982117 793.333557,464.287689 
	C792.804688,479.987274 782.812073,493.478149 767.180969,499.382538 
	C752.869019,504.788635 735.855835,501.079987 725.654114,490.484528 
	C716.032959,480.492126 713.324097,461.808411 723.025208,449.738892 
	C728.938904,442.381439 736.930359,440.780548 745.515198,442.090698 
	C753.444153,443.300812 758.547607,448.431671 760.795715,456.170776 
	C763.870544,466.756073 757.837097,476.057831 747.915894,476.396118 
	C742.793457,476.570770 739.114197,474.313538 736.982849,469.969635 
	C734.826355,465.574371 734.776672,460.976715 737.765198,456.710632 
	C738.814941,455.212250 741.480469,453.994781 739.474121,451.745026 
	C737.428101,449.450836 735.099182,451.085022 733.129150,452.214966 
	C726.223938,456.175446 723.191772,467.429443 726.651123,475.857330 
	C730.803589,485.973877 741.419189,492.657867 752.877930,492.370758 
	C769.970215,491.942505 782.083069,481.964081 784.984314,465.214508 
	C787.338501,451.622803 781.423706,441.190857 770.854675,433.212311 
	C749.040222,416.744598 725.751648,417.742157 701.862549,427.925842 
	C694.640198,431.004608 687.959656,435.093109 681.529724,439.598816 
	C665.578247,450.776550 650.281372,462.900604 633.472839,472.843658 
	C632.231201,473.578125 630.869141,474.343353 630.216064,476.157135 
	C632.365417,477.332214 633.980591,475.664642 635.673340,475.107819 
	C648.632446,470.844818 661.457581,466.052521 675.461609,466.644653 
	C681.250122,466.889404 686.659424,468.365845 691.605347,471.306763 
	C697.257385,474.667450 700.102478,479.626617 699.349182,486.341949 
	C698.949036,489.909088 697.306335,492.766022 693.850464,494.031494 
	C690.614685,495.216370 688.113708,494.500610 686.759766,490.789215 
	C682.650208,479.523254 674.209961,475.089966 661.684753,476.569458 
	C647.193054,478.281281 633.282898,482.286407 619.655945,487.102020 
	C600.540771,493.857086 581.970703,502.130493 562.350098,508.405182 
	C570.680359,510.082611 579.100464,509.496155 587.454285,509.619476 
	C595.949951,509.744934 604.449341,509.593719 612.947144,509.597839 
	C621.612305,509.602020 630.277466,509.668335 638.942627,509.669495 
	C647.433777,509.670654 655.924866,509.624023 664.898804,509.598724 
M489.705933,494.654388 
	C504.573730,497.503021 519.419617,497.304688 534.366028,494.969910 
	C550.354065,492.472321 566.531799,490.136566 581.088562,482.996643 
	C606.838074,470.366821 629.201233,453.306519 645.377441,429.008575 
	C669.950317,392.098114 677.897705,352.101349 666.725159,309.056549 
	C658.028381,275.550476 639.623779,248.056580 611.460449,227.641190 
	C570.298096,197.802887 524.474670,189.227646 475.394653,200.909073 
	C431.206055,211.426270 397.707275,236.817780 376.035248,277.326324 
	C364.302185,299.257385 358.303986,322.520752 358.507965,347.254211 
	C358.648834,364.337891 362.107086,380.994507 368.266113,396.951630 
	C378.657043,423.873108 393.863190,447.311737 417.783997,464.378632 
	C439.261230,479.702118 462.752258,490.163788 489.705933,494.654388 
z"/>
<path fill="#000000" opacity="1.000000" stroke="none" 
	d="
M826.890259,688.973267 
	C846.772644,702.138489 844.164429,734.235596 821.220093,745.283630 
	C807.674622,751.805847 794.017151,750.444214 780.500916,745.316467 
	C763.853027,739.000549 750.525452,727.573303 736.856201,716.629089 
	C720.563049,703.583923 702.891846,693.117920 681.823730,689.804260 
	C676.779297,689.010803 671.678589,689.055115 666.543945,690.095947 
	C672.434937,690.690491 678.116760,692.138611 683.730042,693.740479 
	C701.659241,698.856934 715.796082,708.569946 721.705017,727.206421 
	C726.824890,743.354431 718.294800,759.981384 702.897217,763.602539 
	C693.432556,765.828369 684.317200,764.723022 677.143921,756.933167 
	C673.672546,753.163391 672.355164,748.565369 671.990417,743.707153 
	C671.673523,739.486511 676.758057,733.953430 680.491150,733.940430 
	C684.929260,733.924927 689.200623,738.398865 688.812317,743.461975 
	C688.514404,747.346436 687.860779,750.701172 692.779114,752.183655 
	C697.982178,753.751953 702.634033,752.834595 705.657654,748.388550 
	C708.913696,743.600708 710.476746,738.260864 709.060974,732.313782 
	C705.206543,716.122803 693.378235,708.090820 678.810303,703.357788 
	C658.886292,696.884399 639.651428,700.711853 620.971863,708.664490 
	C615.155151,711.140930 609.562317,714.179810 604.611877,718.208801 
	C603.410034,719.186829 601.552551,719.734741 601.651794,722.202332 
	C607.682678,720.817627 613.566406,719.350647 619.500549,718.128357 
	C631.883484,715.577820 644.198486,720.247131 650.259644,729.787598 
	C654.215393,736.014099 653.975220,742.333130 650.344910,748.671570 
	C647.197937,754.166199 642.265198,755.667419 636.347900,755.341858 
	C633.320557,755.175354 631.089661,753.700867 630.307007,750.992004 
	C629.538818,748.333374 632.340881,748.125000 633.952881,747.117249 
	C638.719482,744.137146 639.683228,738.606812 635.987244,734.252319 
	C631.857056,729.386292 626.437988,727.317749 620.021973,727.580811 
	C606.280090,728.144226 594.707214,734.148010 583.899414,741.950684 
	C577.975342,746.227600 572.327698,750.888550 565.823364,754.600830 
	C571.271362,752.647766 576.692444,750.615234 582.174011,748.761475 
	C589.173889,746.394287 596.249451,744.689026 603.685974,746.866760 
	C611.429016,749.134399 616.406006,754.038696 619.508789,761.543823 
	C621.886597,767.295410 616.729858,774.954651 609.760742,773.626282 
	C609.049683,772.989014 609.103394,772.216370 609.230042,771.347412 
	C610.375732,763.487122 607.379883,759.342224 599.492676,758.315002 
	C592.466309,757.399963 585.592346,758.332031 578.777039,760.332397 
	C566.749817,763.862366 554.710999,766.515808 541.938599,763.782593 
	C531.228821,761.490723 522.782471,756.474670 516.908081,747.206482 
	C516.219849,746.120605 515.711853,744.755676 513.869629,744.673279 
	C511.274780,746.264954 510.818726,749.530334 508.940735,751.815430 
	C500.821991,761.694031 489.688751,764.332031 477.794006,765.250427 
	C469.686890,765.876526 461.922241,764.060364 454.219849,761.759521 
	C449.757294,760.426575 445.241699,759.236023 440.696289,758.221985 
	C426.601593,755.077332 421.083405,759.048645 420.188385,773.006653 
	C415.431519,774.676941 412.569092,772.187561 410.681335,768.294006 
	C408.122375,763.016296 409.836487,756.230774 414.758392,751.996887 
	C422.715881,745.151672 431.817230,744.706299 441.569092,747.221619 
	C449.959412,749.385681 457.815338,753.028809 466.144318,755.450867 
	C452.567780,748.329529 441.325592,737.397766 426.751587,731.915588 
	C418.565735,728.836426 410.475769,725.843079 401.546814,728.250122 
	C395.836395,729.789429 391.904480,734.031433 391.338440,739.258850 
	C390.962646,742.729431 391.484222,745.541992 395.750458,746.228394 
	C397.254181,746.470337 399.305389,746.708679 399.541260,748.870850 
	C399.761902,750.893005 398.462952,752.322693 397.058838,753.537659 
	C392.048279,757.873657 382.138336,754.701416 379.089111,747.817993 
	C372.905121,733.858154 383.257996,718.774902 399.681732,717.720642 
	C407.661652,717.208313 415.213226,718.979858 422.681030,721.521667 
	C424.309479,722.075928 425.946686,723.426147 427.890442,722.297791 
	C428.650635,720.572815 427.275391,719.865295 426.305634,719.087952 
	C413.313110,708.673950 398.149933,703.672607 381.925629,701.262634 
	C366.563812,698.980896 352.016724,700.934875 338.775421,709.507629 
	C327.826935,716.596069 320.194244,725.708130 321.271362,739.784668 
	C321.617554,744.308899 323.321899,748.208252 327.101166,750.902466 
	C332.851654,755.001953 339.957062,751.926819 340.864655,744.982483 
	C341.363251,741.167603 341.557129,737.434204 346.070160,735.653442 
	C350.577301,733.875061 355.074768,735.172424 356.852142,739.642822 
	C359.190063,745.523315 358.642914,751.030334 354.163666,755.879089 
	C345.708984,765.031311 333.269684,767.102966 321.743011,761.212952 
	C311.258881,755.855713 305.546112,743.427124 308.044159,731.106689 
	C312.415466,709.547119 327.632019,699.268188 347.267822,693.718567 
	C351.891174,692.411865 356.605499,691.427002 361.249146,689.982971 
	C352.333954,688.329285 343.686951,690.018982 335.191620,692.638489 
	C315.653564,698.662903 299.563080,710.446594 284.329224,723.567871 
	C271.716064,734.431946 258.309906,743.834106 241.760620,747.752258 
	C225.651154,751.566284 210.709045,749.573425 198.814819,737.279175 
	C188.903610,727.034729 187.757095,714.590759 192.729706,701.507080 
	C197.565216,688.783997 207.445374,682.158020 220.447906,680.983582 
	C229.698303,680.147888 238.232010,683.340027 244.444168,690.900146 
	C248.098419,695.347290 248.444580,702.159180 245.438599,706.245178 
	C243.558197,708.801147 241.031464,709.706543 237.986038,709.228943 
	C235.263367,708.802063 234.371933,706.825012 233.664917,704.390381 
	C232.087082,698.957092 227.010025,695.337158 221.346298,695.257996 
	C206.688858,695.053040 196.894806,708.367188 201.508530,722.225525 
	C205.755905,734.983398 224.347870,744.193298 236.577057,739.556946 
	C236.092804,737.649963 234.470215,738.386536 233.323883,738.220276 
	C224.233765,736.902283 217.596542,732.157959 213.517776,723.960510 
	C212.601349,722.118713 211.139572,719.612305 213.513184,718.140137 
	C215.935730,716.637573 217.663651,718.470093 219.163498,720.600464 
	C226.650253,731.234497 240.098999,735.536316 252.325760,731.297058 
	C261.413513,728.145996 269.540039,723.365295 276.521820,716.705872 
	C277.596924,715.680481 278.974152,714.748779 278.664185,713.002808 
	C278.290253,710.896729 276.364838,710.812561 274.802002,710.446167 
	C268.232971,708.906372 263.186432,705.553284 260.802429,698.948975 
	C260.226013,697.352234 259.653229,695.649170 261.371155,694.408020 
	C262.914825,693.292725 264.383453,694.313049 265.459442,695.221924 
	C275.491882,703.696167 286.269989,701.333069 297.054321,697.360229 
	C309.522125,692.767151 321.061035,685.798340 334.194122,682.878906 
	C349.060242,679.574341 363.901581,679.238525 378.617340,683.500916 
	C404.959686,691.130859 427.689240,704.565918 446.142548,725.158508 
	C453.120453,732.945374 460.459930,740.535706 469.659515,745.922241 
	C480.764282,752.424255 491.162048,752.393494 499.033203,745.876221 
	C501.044373,744.211121 502.400238,742.154541 503.237366,739.788025 
	C505.039032,734.695068 503.016418,731.832520 497.659576,732.482361 
	C493.022125,733.045044 491.323761,730.213013 491.011353,726.852661 
	C490.570526,722.110596 488.051483,720.196716 483.910309,719.202087 
	C481.728516,718.678162 478.793091,718.326477 478.970764,715.252502 
	C479.159454,711.987183 482.084442,711.986450 484.590790,711.562927 
	C495.713165,709.683655 503.516266,714.847046 509.791290,723.288025 
	C514.920593,730.187744 514.867371,730.186768 519.640564,723.442993 
	C525.669006,714.925842 533.517334,710.135620 544.337158,711.710205 
	C545.792603,711.922058 547.254517,712.335327 548.612732,712.898438 
	C549.939453,713.448425 550.590271,714.644531 550.545471,716.119629 
	C550.497742,717.693604 549.452454,718.550476 548.126892,718.958252 
	C546.379700,719.495789 544.575256,719.857971 542.782532,720.233948 
	C539.622009,720.896729 537.254883,721.629333 538.109741,726.063110 
	C538.912598,730.227539 536.161011,732.412964 531.884521,732.075439 
	C526.245911,731.630493 524.590515,733.595276 525.966980,739.099060 
	C528.262390,748.277222 537.366882,752.852295 548.308289,750.226074 
	C559.136475,747.627136 567.235962,740.513550 574.895020,733.138245 
	C587.770081,720.739990 600.958618,708.814209 616.341003,699.556152 
	C636.352539,687.512207 657.294495,678.671509 681.398376,680.687012 
	C693.497131,681.698669 704.809937,685.553406 715.920044,690.121765 
	C721.922791,692.590088 727.790955,695.388000 733.808594,697.817322 
	C744.524414,702.143433 754.902527,702.261108 764.450073,694.720825 
	C765.577026,693.830750 766.732483,693.188782 768.065979,694.064514 
	C769.550903,695.039673 768.864685,696.337097 768.445435,697.629883 
	C765.563782,706.514954 760.772705,710.322937 751.380554,711.217102 
	C749.945435,711.353699 748.377563,710.709351 746.948303,711.920105 
	C747.014465,712.324280 746.919739,712.989075 747.188416,713.208130 
	C759.933777,723.599243 772.867554,733.645020 790.675110,732.684875 
	C799.943054,732.185181 807.168762,727.978638 812.287476,720.225342 
	C813.245789,718.773804 813.591553,716.383362 816.135437,717.373352 
	C818.794739,718.408325 818.634155,720.794800 817.915283,722.895203 
	C815.326477,730.459839 809.376404,734.531494 802.332336,737.335754 
	C800.504333,738.063477 798.598694,738.596069 796.689392,739.231445 
	C797.188416,741.039795 798.582397,740.664795 799.558655,740.649902 
	C810.700073,740.479858 820.117859,736.652832 826.464050,727.101257 
	C830.556458,720.941650 830.995605,714.444824 827.319336,707.757996 
	C823.429871,700.683350 817.626953,696.246216 809.635254,695.485107 
	C804.088989,694.956970 799.968872,698.131226 797.861328,703.119446 
	C796.159851,707.146484 794.580078,710.568909 789.316101,709.048035 
	C784.825256,707.750610 781.345642,702.053894 782.013367,697.209961 
	C783.153259,688.940063 791.252991,682.393860 801.026428,681.715454 
	C810.393311,681.065125 818.735229,684.001892 826.890259,688.973267 
z"/>
<path fill="#000000" opacity="1.000000" stroke="none" 
	d="
M469.000122,665.224609 
	C372.515656,665.183899 276.531219,665.145996 180.546799,665.104187 
	C151.901443,665.091736 123.256050,665.081665 94.610756,665.027039 
	C92.127571,665.022339 89.626434,664.819519 87.168831,664.464844 
	C85.598053,664.238098 84.335655,663.303528 84.539459,661.414856 
	C84.733803,659.613770 85.551018,658.185791 87.520462,657.931458 
	C88.834473,657.761658 90.179092,657.795410 91.510033,657.795166 
	C210.000961,657.775391 328.491882,657.748779 446.982819,657.749634 
	C585.957825,657.750732 724.932861,657.773438 863.907837,657.793335 
	C889.571594,657.796997 915.235352,657.830322 940.899109,657.857727 
	C942.063660,657.859009 943.234436,657.875305 944.390991,657.994690 
	C946.088745,658.169861 947.100464,659.060486 947.241638,660.871399 
	C947.389160,662.764282 946.823792,664.290771 944.876770,664.687012 
	C943.102722,665.048096 941.246582,665.123474 939.426514,665.123962 
	C831.610474,665.152710 723.794373,665.156189 615.978333,665.172180 
	C567.152283,665.179443 518.326233,665.207336 469.000122,665.224609 
z"/>
<path fill="#000000" opacity="1.000000" stroke="none" 
	d="
M378.758179,626.829346 
	C371.918304,631.924500 364.644806,634.880798 356.434906,635.511536 
	C345.816681,636.327393 335.187500,635.814941 324.564453,635.862427 
	C322.698700,635.870789 320.127594,636.099121 319.302277,633.876343 
	C318.385742,631.407837 320.773682,630.539246 322.411987,629.488892 
	C324.945709,627.864319 325.658325,625.360474 325.660065,622.590027 
	C325.674347,599.948792 325.644257,577.307495 325.662964,554.666260 
	C325.666504,550.370544 322.610443,548.264282 319.736145,545.989563 
	C318.577271,545.072388 317.061829,544.339294 317.502686,542.474426 
	C317.928558,540.672974 319.490936,540.259583 321.000641,540.219177 
	C334.131561,539.867371 347.356842,538.416687 360.350342,540.979614 
	C382.067749,545.263123 394.798706,560.302002 396.164886,582.929810 
	C397.197540,600.033813 393.071442,615.311218 378.758179,626.829346 
M378.641296,576.974609 
	C376.004456,556.927979 363.485626,549.313660 347.503540,549.393188 
	C343.321075,549.414062 341.418060,551.347473 341.417786,555.459656 
	C341.416412,577.075867 341.401611,598.692139 341.352203,620.308228 
	C341.343842,623.967468 342.952393,625.705322 346.684906,626.007690 
	C361.992706,627.247742 374.022919,618.586060 377.642395,603.671448 
	C379.716644,595.124207 378.986542,586.498047 378.641296,576.974609 
z"/>
<path fill="#000000" opacity="1.000000" stroke="none" 
	d="
M641.799011,580.272339 
	C647.088379,587.983093 651.440369,595.946350 657.214966,602.701904 
	C660.286438,600.955566 659.615906,598.922363 659.637512,597.206787 
	C659.805115,583.874329 659.428162,570.553650 658.827271,557.233093 
	C658.587952,551.927979 656.715332,547.868835 651.814331,545.527710 
	C650.514099,544.906616 649.377258,544.211182 649.589233,542.620850 
	C649.819885,540.891113 651.132507,539.952087 652.726807,539.933594 
	C659.385559,539.856079 666.057434,539.707336 672.699951,540.054810 
	C675.224426,540.186951 677.827881,542.631287 674.765381,544.610962 
	C667.177490,549.515930 667.644775,557.147766 667.517029,564.220459 
	C667.128540,585.713013 667.412842,607.217224 667.282898,628.715942 
	C667.267456,631.268188 668.871216,634.820129 665.061768,636.080444 
	C661.151855,637.374084 659.320129,634.176880 657.597351,631.588196 
	C648.184998,617.444519 638.885742,603.225708 629.525330,589.047363 
	C625.396729,582.793579 621.257019,576.546143 617.027344,570.360840 
	C616.053406,568.936646 615.126526,566.773743 612.839111,567.615112 
	C610.878479,568.336365 611.376587,570.408081 611.373169,572.008301 
	C611.339844,587.508118 611.340881,603.007996 611.351624,618.507874 
	C611.355164,623.578979 613.069580,627.577820 618.156799,629.614319 
	C619.842041,630.289001 621.659668,631.310303 620.983093,633.663391 
	C620.361938,635.823853 618.326294,635.416138 616.767761,635.433716 
	C610.286499,635.506836 603.803467,635.458008 597.321350,635.412354 
	C595.439453,635.399109 593.492493,635.221191 593.017883,632.897827 
	C592.615723,630.928833 594.347839,630.387085 595.618958,629.726135 
	C598.840576,628.050781 599.841003,625.331970 599.875366,621.883545 
	C600.091248,600.233704 600.363647,578.584351 600.654175,556.935303 
	C600.723938,551.732605 598.368896,548.039062 593.936707,545.527771 
	C592.789917,544.877991 591.324890,544.365662 591.634277,542.679932 
	C591.920105,541.122375 593.338745,540.769348 594.665405,540.502502 
	C601.273499,539.173706 607.933289,539.711914 614.568298,540.127136 
	C616.597900,540.254150 617.383667,542.282959 618.368164,543.815369 
	C626.110962,555.867859 633.852783,567.920898 641.799011,580.272339 
z"/>
<path fill="#000000" opacity="1.000000" stroke="none" 
	d="
M492.566162,566.740845 
	C490.358368,568.052490 490.935028,570.048035 490.944061,571.784546 
	C491.024719,587.279419 491.205902,602.773682 491.298370,618.268494 
	C491.332214,623.942078 492.980103,628.415466 499.077454,630.095276 
	C500.304169,630.433289 501.792969,630.915894 501.424713,632.756714 
	C501.084717,634.456299 499.860870,635.157410 498.240540,635.462219 
	C492.931580,636.460815 487.613312,635.049744 482.294250,635.586731 
	C480.168427,635.801453 477.989136,635.646667 475.847260,635.485901 
	C474.462189,635.381836 473.253143,634.732300 472.954041,633.176331 
	C472.694397,631.825500 473.494232,630.863770 474.528656,630.300049 
	C479.720215,627.471008 480.512360,622.413635 480.584381,617.408813 
	C480.881592,596.751465 480.863037,576.089722 481.061890,555.430603 
	C481.103027,551.154724 478.568085,548.764404 475.500275,546.575012 
	C474.138947,545.603516 472.518524,544.658020 473.306000,542.616089 
	C473.967102,540.901855 475.579681,540.054932 477.283783,540.010864 
	C481.939026,539.890381 486.615936,539.761658 491.253937,540.079041 
	C495.266876,540.353577 496.917053,543.975891 498.820526,546.793762 
	C507.025909,558.940613 515.055481,571.206238 523.148132,583.429260 
	C526.182739,588.012634 529.193054,592.612305 532.261902,597.172607 
	C533.166138,598.516296 533.934753,600.063354 535.585815,600.586121 
	C538.144470,599.725220 537.642639,597.652527 537.652527,595.922546 
	C537.725586,583.118042 536.635315,570.323059 537.545532,557.505554 
	C537.953735,551.756958 535.336670,547.578918 529.887695,545.333801 
	C528.525879,544.772644 526.774902,544.304260 527.266724,542.326599 
	C527.673584,540.690735 529.264099,539.961365 530.769165,539.943970 
	C537.759949,539.862915 544.752869,539.923950 551.744446,539.992432 
	C553.166382,540.006348 554.343933,540.649170 554.790161,542.132874 
	C555.273621,543.739746 554.319519,544.792419 553.067017,545.328247 
	C546.694885,548.054443 546.103088,553.265320 546.161133,559.363159 
	C546.383179,582.688965 546.277405,606.018066 546.229492,629.345825 
	C546.224670,631.701660 546.976685,634.550110 543.537109,635.534912 
	C540.200012,636.490295 538.623840,634.281311 537.115906,632.022461 
	C523.983765,612.351135 510.884338,592.658020 497.737610,572.996521 
	C496.274841,570.808838 495.244385,568.260681 492.566162,566.740845 
z"/>
<path fill="#000000" opacity="1.000000" stroke="none" 
	d="
M194.405289,634.901001 
	C180.701218,629.416260 172.285950,619.717529 168.923355,605.812561 
	C165.406067,591.267944 165.310822,576.885925 171.455887,562.824707 
	C178.380264,546.980286 192.806168,537.678772 209.699936,538.474365 
	C224.766571,539.183960 239.302109,550.736755 243.999619,566.333984 
	C248.628342,581.702820 249.064941,597.134155 242.786652,612.263855 
	C234.384094,632.512695 215.761444,641.305054 194.405289,634.901001 
M183.346115,586.581360 
	C183.219330,598.644531 185.329208,610.209412 192.395752,620.228027 
	C199.798126,630.722717 216.436386,630.220337 223.613174,619.642395 
	C228.079849,613.059021 229.410126,605.468872 230.134781,597.870056 
	C231.462555,583.947205 230.963242,570.201599 223.035950,557.857971 
	C218.742096,551.171997 212.841354,547.363892 204.664658,548.150574 
	C197.089279,548.879395 192.373322,553.667053 189.164856,560.068604 
	C185.146866,568.085266 183.327133,576.669006 183.346115,586.581360 
z"/>
<path fill="#000000" opacity="1.000000" stroke="none" 
	d="
M152.905762,544.575684 
	C153.085419,551.509155 153.448013,558.000854 152.519714,564.477905 
	C152.155716,567.017578 151.441864,569.018188 148.448669,569.235535 
	C145.723190,569.433411 144.621735,567.676453 143.833908,565.514526 
	C143.377975,564.263367 143.055283,562.953491 142.498276,561.750793 
	C138.935822,554.058594 133.800491,548.055603 124.646019,547.846252 
	C115.913589,547.646484 109.407196,552.138428 104.826790,559.314819 
	C100.092827,566.731812 99.024666,575.315063 98.683487,583.763062 
	C98.195015,595.857910 99.659195,607.716797 107.270714,617.914368 
	C112.890099,625.442993 120.690109,627.352478 129.431931,626.292175 
	C133.532257,625.794922 136.222763,623.421509 137.033279,618.896973 
	C138.106216,612.907593 137.771027,606.951355 137.466995,600.977539 
	C137.315613,598.002380 135.478073,596.197083 132.668686,595.239014 
	C130.085541,594.358154 128.104141,592.793701 128.933197,589.706299 
	C129.734909,586.720825 132.348663,587.685181 134.388916,587.676392 
	C141.553314,587.645386 148.718246,587.658936 155.882492,587.716614 
	C157.487701,587.729492 159.489136,587.420959 159.950180,589.637207 
	C160.335266,591.488403 159.230453,592.832092 157.660431,593.690063 
	C154.140564,595.613708 153.120224,598.702576 153.171982,602.490540 
	C153.240234,607.487366 153.082611,612.486938 153.059189,617.485474 
	C153.015717,626.757568 149.504684,632.012085 140.444763,634.713379 
	C109.397423,643.970398 84.945000,625.416626 81.985397,595.928101 
	C80.878662,584.900940 81.693764,574.042480 86.380760,563.642517 
	C94.904144,544.729919 112.259644,535.277283 132.588425,538.770264 
	C137.934021,539.688721 143.131149,541.710754 148.809784,540.112976 
	C151.469193,539.364746 152.392456,541.871826 152.905762,544.575684 
z"/>
<path fill="#000000" opacity="1.000000" stroke="none" 
	d="
M425.178711,615.824707 
	C425.266876,625.657166 426.815735,627.028015 436.127319,626.081055 
	C437.947723,625.895874 439.781738,625.763306 441.610291,625.753296 
	C450.113129,625.706970 455.715790,621.583923 458.734680,613.736389 
	C459.152039,612.651428 459.594299,611.560791 460.170746,610.556396 
	C460.779449,609.495850 461.701416,608.761536 463.048798,609.079468 
	C464.347015,609.385864 465.081055,610.365234 465.120941,611.589783 
	C465.353851,618.736328 465.832794,625.905701 463.638123,632.891846 
	C463.115723,634.554749 462.067291,635.332275 460.350555,635.356018 
	C440.914978,635.624756 421.479340,635.936157 402.050873,635.022034 
	C401.918304,635.015747 401.794403,634.824463 401.574860,634.644409 
	C400.790314,632.114502 402.133911,630.549377 404.302094,629.619873 
	C408.236328,627.933289 409.603912,624.722839 409.613159,620.812439 
	C409.664764,598.999634 409.690857,577.186523 409.614105,555.373901 
	C409.597931,550.772095 408.086639,546.839844 403.173492,545.171570 
	C402.014313,544.777954 401.035492,544.049255 401.146484,542.664917 
	C401.274109,541.072998 402.538971,540.412720 403.866791,540.157532 
	C405.323425,539.877625 406.838013,539.809998 408.327820,539.805420 
	C423.811707,539.757690 439.297119,539.852905 454.778687,539.647583 
	C459.349182,539.586975 461.631866,541.085571 461.647247,545.844543 
	C461.663361,550.828674 462.030487,555.810791 462.138550,560.796082 
	C462.169647,562.230164 462.305725,563.914856 460.169006,564.247742 
	C458.197510,564.554810 457.570038,563.144226 456.910950,561.788696 
	C454.250000,556.316162 451.486938,550.983459 444.608521,549.824890 
	C439.319366,548.934021 433.990662,549.252991 428.675720,549.220398 
	C426.121948,549.204773 425.243683,550.901428 425.245575,553.193665 
	C425.251587,560.519653 425.201019,567.846924 425.329803,575.170959 
	C425.392548,578.738159 427.439697,580.486328 431.030731,580.759827 
	C437.978973,581.288940 444.104492,580.484131 446.695923,572.627014 
	C447.121735,571.335938 448.091522,570.253967 449.734131,570.690674 
	C451.129272,571.061646 451.200104,572.290161 451.353485,573.477905 
	C452.359406,581.265930 452.241791,589.090454 451.969879,596.903503 
	C451.898315,598.960388 451.627411,601.597900 448.842102,601.938721 
	C446.102722,602.273926 446.064514,599.619568 445.238159,597.916260 
	C442.483673,592.238525 432.859650,588.854492 427.508026,591.691956 
	C425.406860,592.806091 425.246429,594.827820 425.236206,596.868774 
	C425.205353,603.029724 425.198547,609.190796 425.178711,615.824707 
z"/>
<path fill="#000000" opacity="1.000000" stroke="none" 
	d="
M752.937134,623.005676 
	C754.474731,626.046692 756.202942,628.446960 758.669495,630.294861 
	C759.770935,631.120117 760.554199,632.229370 760.063110,633.747070 
	C759.540161,635.362915 758.073914,635.450317 756.781677,635.479004 
	C748.796570,635.656433 740.809753,635.770874 732.823059,635.855957 
	C731.266907,635.872437 729.712585,635.489380 729.213745,633.765564 
	C728.637695,631.775208 730.353333,631.110352 731.643005,630.552734 
	C736.006592,628.665588 736.417480,625.637146 734.830750,621.578613 
	C733.318176,617.709961 732.104736,613.717651 730.900269,609.737183 
	C729.788574,606.063293 727.558594,604.200378 723.607971,604.287415 
	C718.112000,604.408630 712.611267,604.378723 707.113403,604.330017 
	C702.011169,604.284790 698.977661,606.605591 698.063416,611.708862 
	C697.624268,614.160034 696.904785,616.559753 696.366821,618.994812 
	C695.192627,624.309753 695.117920,629.084106 701.976685,630.552673 
	C703.162231,630.806519 704.106018,631.627441 703.868286,633.069580 
	C703.607788,634.648804 702.480347,635.310974 701.005554,635.296204 
	C693.523132,635.221252 686.045593,636.101685 678.560242,635.399170 
	C676.974304,635.250305 675.519409,634.850464 675.156189,633.065002 
	C674.832947,631.476196 675.896362,630.350403 677.185303,630.030884 
	C683.727783,628.408508 684.983093,622.720947 686.671326,617.593628 
	C694.424683,594.046021 702.100403,570.471497 709.568542,546.832336 
	C711.181335,541.727356 713.974670,539.682251 719.311218,539.561584 
	C723.683655,539.462830 725.618958,541.194702 726.837830,545.049194 
	C731.301819,559.165833 735.836304,573.261780 740.523560,587.305664 
	C744.472961,599.139099 748.671448,610.889343 752.937134,623.005676 
M723.370056,585.129395 
	C720.477722,578.049866 719.428650,570.248108 715.668701,563.335266 
	C713.099426,564.384033 712.970947,566.214539 712.456909,567.684265 
	C710.760681,572.533752 709.153442,577.415405 707.576904,582.305603 
	C703.875488,593.786865 704.561462,594.696045 716.752136,594.682983 
	C725.324402,594.673767 725.788452,594.079285 723.370056,585.129395 
z"/>
<path fill="#000000" opacity="1.000000" stroke="none" 
	d="
M909.044800,547.919067 
	C903.671997,549.417053 900.783020,552.532471 899.989746,557.790649 
	C899.187378,563.108887 900.794739,567.296326 905.017517,570.501465 
	C909.281433,573.737976 914.021301,576.176208 918.796997,578.550842 
	C922.669983,580.476685 926.511597,582.465515 930.367004,584.426697 
	C943.464355,591.088928 946.161438,604.204407 943.177979,616.917297 
	C940.448669,628.547058 928.869385,636.989075 915.944885,637.296448 
	C910.100037,637.435425 904.279114,637.324158 898.747620,635.021912 
	C896.153442,633.942261 893.582764,634.284912 890.932434,635.006042 
	C887.339294,635.983704 885.110352,634.717529 884.787964,630.741699 
	C884.223450,623.779419 883.403015,616.835510 883.658875,609.825745 
	C883.741821,607.555786 883.815186,605.408020 886.677063,604.886841 
	C889.243896,604.419373 890.225403,606.197815 891.114319,608.047729 
	C891.906677,609.696655 892.575562,611.405151 893.373962,613.050964 
	C899.072632,624.797607 906.955261,628.845398 919.778564,626.637207 
	C924.253967,625.866577 928.353271,621.534912 929.522827,616.340942 
	C931.098389,609.343811 928.940063,603.025452 922.953064,599.362244 
	C917.860291,596.246094 912.324707,593.859497 907.027710,591.069092 
	C903.645874,589.287598 900.187317,587.586975 897.030884,585.453979 
	C886.040405,578.027222 882.845398,567.309814 887.540833,554.382385 
	C891.290588,544.058594 902.082764,537.505371 913.732544,538.390320 
	C917.732178,538.694092 921.665405,539.237366 925.467041,540.562561 
	C928.346558,541.566345 930.970032,542.025085 934.027954,540.292053 
	C937.531799,538.306274 938.957214,541.277283 939.182190,544.073608 
	C939.688232,550.364197 939.122375,556.705200 939.952087,563.010376 
	C940.151978,564.529663 939.717773,566.547424 937.674805,566.975891 
	C935.285767,567.476868 934.471130,565.555786 933.870789,563.830505 
	C930.975220,555.509460 925.595215,549.949890 916.818359,547.919006 
	C914.325500,547.342285 911.896301,547.200378 909.044800,547.919067 
z"/>
<path fill="#000000" opacity="1.000000" stroke="none" 
	d="
M820.681152,577.000000 
	C820.693115,569.670410 820.501953,562.832458 820.786377,556.014221 
	C820.994751,551.019592 819.742065,547.158203 814.921326,544.996094 
	C814.167114,544.657837 813.476013,544.179016 813.126648,543.978333 
	C813.895935,540.430603 816.078613,539.912720 818.252502,539.885437 
	C825.411560,539.795471 832.574219,539.825623 839.732544,539.962341 
	C841.508911,539.996277 843.568420,540.225525 844.297668,542.330872 
	C845.106140,544.665039 843.221008,545.528625 841.683411,546.529541 
	C838.633240,548.515076 837.309631,551.343140 837.308594,554.976562 
	C837.302551,576.629211 837.264954,598.282043 837.169556,619.934448 
	C837.152527,623.802368 838.585266,625.939514 842.718262,625.811157 
	C845.711731,625.718140 848.717041,625.935608 851.706177,625.790283 
	C859.792664,625.397156 866.145203,622.211365 869.545593,614.399170 
	C870.341431,612.570740 871.278748,610.797729 872.249817,609.054260 
	C872.759644,608.138733 873.626526,607.558472 874.751221,607.803101 
	C875.939880,608.061646 876.229248,609.025696 876.270935,610.080627 
	C876.567322,617.583252 876.415894,625.085815 874.906982,632.449036 
	C874.236694,635.720093 871.056396,635.897400 868.407104,635.891724 
	C860.255981,635.874268 852.105835,635.602600 843.954407,635.513916 
	C835.139282,635.417908 826.323181,635.425293 817.507629,635.366577 
	C815.840027,635.355530 813.828430,635.486206 813.179077,633.626221 
	C812.401245,631.398499 814.311829,630.351257 815.942322,629.525574 
	C819.713074,627.616150 820.791382,624.533081 820.750854,620.474976 
	C820.607971,606.151184 820.687073,591.825195 820.681152,577.000000 
z"/>
<path fill="#000000" opacity="1.000000" stroke="none" 
	d="
M313.322266,617.057068 
	C313.168762,622.013794 313.742249,626.516785 312.352112,630.930969 
	C311.454773,633.780334 310.065674,635.270569 306.782776,635.502319 
	C296.962006,636.195740 287.128693,636.352722 277.336334,635.754883 
	C270.819672,635.356934 264.359009,636.201599 257.890411,635.760498 
	C255.715118,635.612244 252.828049,635.937622 252.157837,632.889160 
	C251.572693,630.227722 254.206207,629.827942 255.734085,628.743164 
	C258.385681,626.860413 259.702667,624.312134 259.702179,621.096680 
	C259.698761,598.452332 259.648804,575.807922 259.699768,553.163696 
	C259.706818,550.024719 257.894897,548.321472 255.644867,546.764587 
	C254.294189,545.830078 252.521271,545.107666 252.990845,543.010498 
	C253.470993,540.866089 255.407745,540.095276 257.187134,540.060059 
	C264.836639,539.908264 272.491974,539.949585 280.142975,540.065430 
	C281.620850,540.087830 283.194763,540.737183 283.376373,542.596069 
	C283.528168,544.149780 282.457916,545.023132 281.146606,545.561340 
	C277.220764,547.172607 275.782379,550.364258 275.724091,554.306335 
	C275.566650,564.957153 275.450470,575.609070 275.395569,586.260864 
	C275.340607,596.918457 275.323395,607.576782 275.398468,618.234131 
	C275.443329,624.602356 276.653564,625.725647 283.020630,625.930359 
	C296.584320,626.366333 302.208405,622.913574 307.709137,610.863220 
	C308.492645,609.146912 308.831329,606.391418 311.426605,606.972534 
	C313.918030,607.530457 313.247589,610.151855 313.318268,612.077759 
	C313.373199,613.574463 313.325806,615.074951 313.322266,617.057068 
z"/>
<path fill="#000000" opacity="1.000000" stroke="none" 
	d="
M793.022705,616.900757 
	C792.316223,623.403564 793.492065,628.339417 800.168640,630.341675 
	C801.228088,630.659424 802.304443,631.530579 802.012207,632.964722 
	C801.710693,634.444031 800.635315,635.251953 799.179504,635.353271 
	C789.878967,636.000244 780.569702,636.299561 771.256592,635.676086 
	C769.947021,635.588440 768.442200,635.258179 768.127563,633.668091 
	C767.832336,632.176514 768.814819,630.999817 770.017639,630.430176 
	C776.229065,627.488220 776.747986,622.155579 776.699707,616.163879 
	C776.541138,596.508850 776.513184,576.849731 776.768127,557.196533 
	C776.833496,552.157654 775.620483,548.461975 771.023438,546.081726 
	C769.626526,545.358459 767.636230,544.596313 768.192139,542.497070 
	C768.730286,540.464722 770.684265,539.826782 772.568298,539.815857 
	C780.894714,539.767517 789.222107,539.805786 797.548279,539.895325 
	C799.288391,539.914001 800.892639,540.561157 801.374634,542.499146 
	C801.906250,544.636108 800.331177,545.598877 798.786072,546.196411 
	C792.991516,548.437500 792.127380,553.277466 792.450012,558.474243 
	C793.648865,577.782654 792.697876,597.104919 793.022705,616.900757 
z"/>
<path fill="#000000" opacity="1.000000" stroke="none" 
	d="
M539.399048,783.511963 
	C543.600464,785.531006 542.256409,788.019531 540.095520,789.914001 
	C535.921997,793.572937 531.317322,796.224121 525.539307,792.513367 
	C522.896118,795.353943 523.536194,799.224304 521.965271,802.224182 
	C520.383728,805.244446 519.567383,809.665405 515.501709,809.675354 
	C511.783997,809.684387 510.625671,805.653259 509.160797,802.679993 
	C509.087250,802.530701 508.982391,802.386414 508.951263,802.228088 
	C507.693909,795.838989 505.971344,790.376953 497.269043,793.036011 
	C495.003784,793.728149 492.591064,791.590576 490.789734,789.793762 
	C487.705322,786.716980 488.094879,784.327087 492.265045,782.811646 
	C501.723999,779.374268 508.627472,773.478333 511.952667,763.747437 
	C512.421265,762.376038 513.181946,760.990845 515.945129,760.037476 
	C520.390747,770.713318 526.383789,780.569031 539.399048,783.511963 
z"/>
<path fill="#000000" opacity="1.000000" stroke="none" 
	d="
M556.871643,727.750000 
	C559.226562,722.068542 558.598511,716.265869 559.852966,710.776550 
	C562.145630,700.743958 569.770691,696.272400 579.492676,700.352051 
	C575.152100,704.236755 572.944092,708.978333 572.246277,714.475098 
	C571.554382,719.925171 569.982605,725.171936 567.690369,730.193604 
	C564.007996,738.261108 557.309875,741.919312 548.922791,743.087830 
	C547.194580,743.328674 547.176636,743.199646 543.997192,741.200256 
	C548.284119,736.771973 555.280823,734.952637 556.871643,727.750000 
z"/>
<path fill="#000000" opacity="1.000000" stroke="none" 
	d="
M476.708740,741.860107 
	C465.556244,739.357971 461.818176,730.802185 459.019531,721.692261 
	C457.108398,715.471069 458.606598,708.281128 453.311737,702.964722 
	C452.034729,701.682556 453.425354,700.324036 454.958069,699.536438 
	C459.068726,697.424072 464.847198,699.027954 467.099091,703.221008 
	C469.001282,706.762939 470.157684,710.579346 470.329651,714.656067 
	C470.541840,719.686646 472.047241,724.460327 473.450104,729.235657 
	C474.727753,733.584656 478.523438,735.078003 482.219452,736.748840 
	C484.021179,737.563293 487.262817,737.673950 486.678070,740.504822 
	C486.102692,743.290222 483.107788,742.137207 481.087585,742.276245 
	C479.776154,742.366638 478.440094,742.099976 476.708740,741.860107 
z"/>
<path fill="#000000" opacity="1.000000" stroke="none" 
	d="
M514.932068,721.015442 
	C511.320679,715.420227 508.694733,709.499756 507.171906,703.206360 
	C505.322083,695.561462 507.747131,688.715027 512.181335,682.526978 
	C514.195679,679.715942 516.461853,679.736816 518.635193,682.589355 
	C523.138794,688.500488 524.804688,695.136963 523.149597,702.337280 
	C521.623108,708.978455 518.577698,715.072083 514.932068,721.015442 
z"/>
<path fill="#000000" opacity="1.000000" stroke="none" 
	d="
M604.351868,462.438232 
	C584.007874,476.557922 561.902527,485.998199 537.756897,488.725983 
	C481.027069,495.134796 432.362488,479.424316 395.705627,433.574768 
	C373.917206,406.322357 363.835693,374.991760 364.936676,340.315704 
	C365.825470,312.322113 375.056000,286.975555 391.429047,264.115692 
	C415.755981,230.150742 448.699280,210.547318 489.793488,204.625000 
	C530.694153,198.730576 569.452515,205.071289 603.551514,229.285507 
	C638.398071,254.030579 660.202087,287.652710 665.067017,330.787445 
	C669.603333,371.008209 657.613037,406.373383 631.679810,437.192444 
	C623.713074,446.660034 615.052612,455.391449 604.351868,462.438232 
M442.887634,227.437866 
	C403.395630,250.128799 379.963531,283.996582 373.261658,328.999359 
	C368.283142,362.430267 375.877075,393.532745 395.163055,420.995483 
	C430.426086,471.209351 480.397827,489.115570 539.571899,481.114929 
	C577.823486,475.943115 609.462158,457.014160 632.403076,425.180359 
	C653.902710,395.346558 663.716309,361.892090 657.168823,325.656342 
	C647.767090,273.624146 617.485474,236.998688 567.747009,218.719452 
	C525.628174,203.240448 483.726990,206.117386 442.887634,227.437866 
z"/>
<path fill="#000000" opacity="1.000000" stroke="none" 
	d="
M461.210266,322.122437 
	C456.850159,351.395447 459.656311,379.374420 472.147125,405.913483 
	C484.725677,432.639038 510.292175,440.028290 535.814880,433.624878 
	C539.882935,432.604248 543.708252,430.814301 547.009644,428.240051 
	C552.174866,424.212494 554.931580,418.862000 554.486877,412.188873 
	C553.533203,397.878448 554.242371,383.546173 553.820129,369.229797 
	C553.578613,361.041565 551.598999,358.253876 543.722534,355.971344 
	C539.899109,354.863312 535.951782,354.124298 532.018433,353.472961 
	C529.087463,352.987640 525.950500,352.631775 526.338196,348.783600 
	C526.709351,345.100952 529.221863,343.549927 533.048218,343.694397 
	C539.705139,343.945862 546.385864,343.660278 553.034851,344.011047 
	C568.687500,344.836823 584.322388,344.843262 599.959045,343.764923 
	C600.954224,343.696289 601.958801,343.701233 602.956299,343.741364 
	C605.233704,343.832886 606.776428,344.919586 607.128845,347.241486 
	C607.489563,349.618774 606.804565,351.596558 604.326599,352.434235 
	C602.284485,353.124573 600.199097,353.707764 598.102905,354.214233 
	C587.888184,356.682434 586.359375,358.574036 586.321350,369.314056 
	C586.272949,382.975983 585.933472,396.649963 586.389282,410.296387 
	C586.751343,421.136566 582.387939,428.334564 573.175415,433.968597 
	C534.780884,457.449219 484.539001,453.934204 452.787445,424.803436 
	C437.640686,410.906891 429.676086,392.922089 425.120575,373.235535 
	C418.980347,346.700592 420.865509,320.604065 433.073029,296.347748 
	C447.622528,267.437927 471.398468,249.429169 503.732117,244.021866 
	C522.515808,240.880569 540.937317,243.125504 558.619324,250.266724 
	C564.677795,252.713577 570.070984,253.492477 576.067932,249.644470 
	C580.954651,246.508881 583.882690,248.585983 583.924377,254.572098 
	C584.030945,269.880981 584.001648,285.191437 583.906555,300.500519 
	C583.887817,303.520782 583.509338,306.768188 579.708374,307.540619 
	C575.839905,308.326782 574.302734,305.357697 573.218262,302.583984 
	C569.944519,294.211029 566.811646,285.849884 561.529785,278.394073 
	C551.822205,264.690948 539.129089,256.991943 522.014709,256.991119 
	C496.805786,256.989899 477.706085,270.168457 468.772919,293.792511 
	C465.344299,302.859619 462.739441,312.111450 461.210266,322.122437 
z"/>
</svg>