<svg version="1.1" id="Layer_1" xmlns="http://www.w3.org/2000/svg" xmlns:xlink="http://www.w3.org/1999/xlink" x="0px" y="0px"
	 width="100%" viewBox="0 0 448 416" enable-background="new 0 0 448 416" xml:space="preserve">
<path fill="#000000" opacity="1.000000" stroke="none" 
	d="
M47.576195,275.284729 
	C23.856850,193.644241 43.605991,124.080482 105.592331,67.243378 
	C134.384735,40.842789 169.651947,26.249241 208.598206,21.641495 
	C271.859955,14.156973 326.505157,33.025902 371.743958,77.564545 
	C400.920807,106.289886 418.673767,141.555756 425.307007,182.071136 
	C434.892578,240.619095 421.080872,293.224213 383.282990,338.944763 
	C354.122223,374.217834 316.485138,396.143341 271.633881,405.189301 
	C186.185898,422.423126 98.827042,380.315918 58.880814,302.882294 
	C54.375889,294.149750 50.403950,285.155487 47.576195,275.284729 
M307.573212,378.040314 
	C331.177643,367.399292 351.617432,352.312134 368.514587,332.815399 
	C410.831329,283.988281 422.448029,227.719681 406.414337,165.807434 
	C397.276520,130.522873 377.978424,100.968346 349.866577,77.589897 
	C306.155518,41.238785 256.018768,27.777683 200.122467,37.876152 
	C159.263107,45.257980 124.891380,64.895950 97.474060,96.305069 
	C68.263252,129.768768 53.397831,168.920914 52.613945,213.138092 
	C52.123539,240.800827 57.947617,267.475922 70.607231,292.213806 
	C102.258919,354.063782 152.998520,388.005371 222.187744,393.474609 
	C251.512634,395.792664 279.879700,390.247925 307.573212,378.040314 
z"/>
<path fill="#000000" opacity="1.000000" stroke="none" 
	d="
M278.903839,247.095459 
	C278.767517,235.265778 277.060242,232.989944 265.829529,230.079651 
	C261.493835,228.956131 257.057861,228.167053 252.628677,227.473938 
	C249.321884,226.956467 247.314835,225.595200 247.740631,221.956100 
	C248.154099,218.422287 250.076294,216.657532 253.736389,216.690063 
	C262.066925,216.764130 270.398346,216.740829 278.729401,216.743912 
	C296.057159,216.750320 313.384979,216.764984 330.712677,216.735046 
	C334.081238,216.729218 337.091492,216.833405 337.487396,221.354889 
	C337.865936,225.677856 335.213226,226.798401 331.831268,227.445236 
	C331.015289,227.601303 330.226105,227.893478 329.413086,228.069824 
	C316.070435,230.963898 314.361145,233.103638 314.354004,246.933182 
	C314.346130,262.262421 314.101471,277.596527 314.420380,292.918915 
	C314.590454,301.090668 311.408752,307.086365 304.848114,311.489655 
	C281.354187,327.257874 255.775497,334.369171 227.280716,331.634735 
	C200.398041,329.054993 177.609512,318.313324 158.728027,299.442963 
	C143.192123,283.916260 135.850510,264.025848 131.998840,242.929703 
	C127.410622,217.799301 128.181000,192.700409 137.509842,168.663620 
	C151.977142,131.387039 178.505524,107.082405 218.108459,99.225037 
	C239.657196,94.949707 261.221222,97.218803 281.884979,105.544823 
	C289.292328,108.529465 296.502991,110.270897 304.151520,105.041565 
	C309.005768,101.722694 312.321899,104.207245 312.341949,110.200150 
	C312.400513,127.695259 312.373871,145.190659 312.397247,162.685898 
	C312.401611,165.953964 312.407288,169.315323 308.307983,170.166626 
	C304.070221,171.046661 301.663849,168.451340 300.331848,164.934372 
	C297.562805,157.623093 294.972961,150.279343 291.051849,143.435104 
	C277.952545,120.570526 258.280548,110.689270 232.231949,113.359581 
	C209.249176,115.715599 193.624039,128.600555 183.600555,148.657837 
	C175.923401,164.020020 172.806473,180.647705 171.084579,197.675308 
	C168.792252,220.343857 170.653458,242.509171 177.295532,264.280304 
	C181.619873,278.454529 187.657501,291.621490 198.588867,302.154266 
	C208.505264,311.709137 220.706482,315.470123 233.907883,316.544952 
	C244.950516,317.443970 255.849747,316.664825 266.095947,311.627472 
	C274.509125,307.491302 279.176208,301.199066 279.076355,291.562836 
	C278.924408,276.902588 278.954773,262.240448 278.903839,247.095459 
z"/>
</svg>